<?xml version="1.0" encoding="UTF-8"?><svg id="One_line_logo" xmlns="http://www.w3.org/2000/svg" viewBox="0 0 549.6 55.63"><defs><style>.cls-1{fill:#28be3c;}</style></defs><path class="cls-1" d="m0,54.32h146.9V1.31H0v53.01ZM99.95,7.37h40.89v40.89h-40.89V7.37Z"/><polygon points="212.88 47.48 197.17 1.31 187.79 1.31 187.79 54.32 194.19 54.32 194.19 9.89 209.24 54.32 216.37 54.32 231.28 9.89 231.28 54.32 237.68 54.32 237.68 1.31 228.3 1.31 212.88 47.48"/><path d="m269.22,0c-15.2,0-25.52,11.63-25.52,28.21s10.33,27.41,25.6,27.41,25.6-11.42,25.6-26.98c0-17.09-10.11-28.65-25.67-28.65Zm.07,49.67c-11.27,0-18.83-8.36-18.83-21.45s7.56-22.25,18.76-22.25,18.91,9.16,18.91,22.54-7.64,21.16-18.83,21.16Z"/><polygon points="307.86 1.31 301.1 1.31 301.1 54.32 334.04 54.32 334.04 48.36 307.86 48.36 307.86 1.31"/><path d="m385.21,26.47l-13.31-3.56c-6.4-1.67-8.73-3.78-8.73-7.85,0-5.38,4.73-9.38,11.85-9.38,8.44,0,13.23,3.85,13.23,10.76h6.4c0-10.4-7.2-16.43-19.42-16.43s-18.83,6.4-18.83,16c0,6.47,3.42,10.54,10.4,12.36l13.16,3.49c6.69,1.75,9.74,4.44,9.74,8.58,0,5.82-4.36,9.23-13.53,9.23-10.04,0-14.98-5.02-14.98-12.58h-6.4c0,12.51,8.44,18.54,20.94,18.54,13.45,0,20.72-6.4,20.72-15.85,0-6.54-4.07-11.34-11.27-13.31Z"/><polygon points="434.97 45.88 427.48 16.22 420.06 16.22 412.79 45.88 405.01 16.22 398.32 16.22 409.37 54.32 416.2 54.32 423.55 24.43 431.26 54.32 438.16 54.32 449.36 16.22 442.53 16.22 434.97 45.88"/><rect x="453.44" y="16.22" width="6.04" height="38.1"/><rect x="452.71" y="2.91" width="7.56" height="7.56"/><path d="m474.56,5.74h-6.04v10.47h-5.16v4.95h5.16v27.63c0,3.85,2.62,6.04,7.34,6.04,1.45,0,2.91-.15,4.94-.51v-5.09c-.8.22-1.75.29-2.91.29-2.62,0-3.35-.73-3.35-3.42v-24.94h6.25v-4.95h-6.25V5.74Z"/><path d="m499.2,49.81c-6.69,0-10.69-5.16-10.69-14.18,0-9.53,3.93-14.91,10.54-14.91,5.09,0,8.29,2.98,9.02,8.29h6.11c-.73-9.31-6.54-13.89-15.05-13.89-10.25,0-16.94,7.85-16.94,20.51s6.54,19.78,16.87,19.78c9.09,0,14.83-5.45,15.56-14.18h-6.11c-1.02,6.11-4.14,8.58-9.31,8.58Z"/><path d="m537.6,15.13c-5.38,0-8.65,1.67-12.22,6.33V1.31h-6.04v53.01h6.04v-21.02c0-7.78,4.07-12.87,10.33-12.87,4.29,0,7.85,2.47,7.85,7.49v26.4h6.04v-28.8c0-6.4-4.58-10.4-12-10.4Z"/></svg>