<svg width="286" height="44" viewBox="0 0 286 44" fill="none" xmlns="http://www.w3.org/2000/svg">
<path d="M12.978 33.798C5.67 33.798 1.302 30.9 0.630005 26.28H8.31601C8.56801 29.094 10.248 30.858 13.062 30.858C14.91 30.858 16.086 30.102 16.086 28.758C16.086 27.078 14.532 26.406 10.29 24.978C5.67 23.382 1.47 22.122 1.47 17.796C1.47 13.428 6.006 11.118 12.096 11.118C18.27 11.118 22.554 13.512 23.688 17.796H16.59C16.254 15.57 14.868 14.058 12.222 14.058C10.29 14.058 9.32401 14.898 9.32401 15.99C9.32401 17.796 11.718 18.678 16.002 19.98C20.58 21.408 23.94 22.962 23.94 26.868C23.94 31.53 19.278 33.798 12.978 33.798Z" fill="black"/>
<path d="M35.4473 33.546C30.7853 33.546 27.4254 31.068 27.4254 24.684V15.738H23.5194V11.958H27.4254V8.26199L35.7833 3.05399H36.1193V11.958H42.5873V15.738H36.1193V24.852C36.1193 27.246 37.0853 28.338 39.0593 28.338C40.9493 28.338 42.2093 27.414 43.3013 25.902L44.0153 28.8C42.3353 31.656 39.4793 33.546 35.4473 33.546Z" fill="black"/>
<path d="M50.7314 33.714C46.5734 33.714 44.0954 31.656 44.0954 28.212C44.0954 24.096 47.4554 22.71 53.2514 21.156C57.5774 19.98 58.9634 19.308 58.9634 17.166C59.0054 15.36 58.0394 14.478 56.2754 14.478C54.0914 14.478 52.4114 15.99 52.4114 19.434H44.9354C45.3554 14.1 51.1934 11.118 57.4514 11.118C62.9534 11.118 67.6574 13.26 67.6574 20.022V25.902C67.6574 28.422 68.1194 29.262 69.2954 29.262C69.7574 29.262 70.1774 29.094 70.5554 28.842V31.572C69.0014 32.748 67.1534 33.462 65.0114 33.462C62.2814 33.462 59.4674 32.076 59.2154 27.876C57.9974 31.278 55.0994 33.714 50.7314 33.714ZM52.2854 26.574C52.2854 28.086 53.2934 28.758 54.5954 28.758C57.2414 28.758 59.0894 26.322 59.0894 22.878V21.114C58.7114 21.912 57.7454 22.332 55.8134 23.046C53.2514 24.012 52.2854 24.936 52.2854 26.574Z" fill="black"/>
<path d="M70.5689 33V32.79C71.9129 31.572 72.2489 29.472 72.2489 25.986V18.972C72.2489 15.444 71.9129 13.386 70.5689 12.126V11.958H81.4049C81.0269 13.05 80.8589 14.562 80.8169 16.83C82.1609 13.47 85.1429 11.118 89.0489 11.118C92.6609 11.118 95.3069 12.924 95.9369 17.292C97.2389 13.68 100.305 11.118 104.379 11.118C108.579 11.118 111.435 13.512 111.435 19.56V25.986C111.435 29.472 111.771 31.572 112.989 32.79V33H101.439V32.79C102.573 31.572 102.867 29.472 102.867 25.986V20.316C102.867 17.334 101.817 16.2 100.053 16.2C98.0369 16.2 96.5249 17.838 96.1049 20.484V25.986C96.1049 29.472 96.4409 31.572 97.7009 32.79V33H86.1089V32.79C87.2849 31.572 87.5789 29.472 87.5789 25.986V20.316C87.5789 17.334 86.4869 16.2 84.7229 16.2C82.7489 16.2 81.3209 17.754 80.8169 20.316V25.986C80.8169 29.472 81.1529 31.572 82.3709 32.79V33H70.5689Z" fill="black"/>
<path d="M113.722 43.08V42.87C115.108 41.778 115.486 39.804 115.486 36.612V18.426C115.486 15.15 115.108 13.26 113.722 12.126V11.958H124.768C124.348 12.966 124.222 14.436 124.18 16.662C125.482 13.512 128.002 11.244 132.244 11.244C137.872 11.244 140.98 15.57 140.98 22.038C140.98 28.8 137.368 33.336 131.446 33.336C128.296 33.336 125.818 32.118 124.18 29.85V36.612C124.18 39.804 124.558 41.778 125.944 42.87V43.08H113.722ZM124.18 26.952C124.978 28.422 126.322 29.514 127.96 29.514C130.312 29.514 132.034 27.288 132.034 22.164C132.034 18.342 130.858 15.78 128.422 15.78C126.028 15.78 124.18 17.964 124.18 23.214V26.952Z" fill="black"/>
<path d="M143.061 16.746C142.137 14.436 141.297 12.798 140.247 12.126V11.958H152.721V12.126C151.377 12.714 151.293 14.31 151.965 16.116L154.863 23.97L158.811 12.42H162.759L166.833 24.054L169.647 16.326C170.403 14.352 170.361 12.714 168.933 12.126V11.958H177.165V12.126C176.031 13.092 175.317 14.31 174.519 16.368L168.807 30.732C168.471 31.53 168.219 32.244 168.051 33H162.591L158.727 21.954L155.703 30.564C155.325 31.572 155.073 32.328 154.947 33H149.487L143.061 16.746Z" fill="black"/>
<path d="M188.991 33.798C181.263 33.798 176.097 29.724 176.097 22.5C176.097 15.234 181.263 11.16 188.991 11.16C196.761 11.16 201.927 15.234 201.927 22.5C201.927 29.724 196.761 33.798 188.991 33.798ZM184.665 22.5C184.665 27.792 186.219 30.312 188.991 30.312C191.805 30.312 193.317 27.834 193.317 22.5C193.317 17.166 191.805 14.646 188.991 14.646C186.219 14.646 184.665 17.166 184.665 22.5Z" fill="black"/>
<path d="M203.177 33V32.79C204.563 31.572 204.941 29.472 204.941 25.986V18.972C204.941 15.444 204.563 13.386 203.177 12.126V11.958H214.265C213.761 13.344 213.635 15.486 213.635 18.972V19.476H213.719C214.475 15.696 217.373 11.412 222.623 11.412V18.552C215.609 18.51 213.803 20.064 213.635 23.256V26.028C213.635 29.514 214.055 31.572 215.609 32.79V33H203.177Z" fill="black"/>
<path d="M240.478 33L233.086 22.626V25.986C233.086 29.472 233.422 31.572 234.766 32.79V33H222.586V32.79C224.014 31.572 224.35 29.472 224.35 25.986V7.08599C224.35 4.69199 224.056 2.71799 223.006 1.41599V1.20599L232.708 0.071991L233.254 0.281991C233.128 1.66799 233.086 3.34799 233.086 7.08599V20.064L238.168 15.906C239.974 14.478 241.024 12.882 240.31 12.126V11.958H249.424V12.378C247.744 13.05 246.358 13.764 244.636 15.15L239.26 19.56L250.474 32.58V33H240.478Z" fill="black"/>
<path d="M261.226 33.798C253.918 33.798 249.55 30.9 248.878 26.28H256.564C256.816 29.094 258.496 30.858 261.31 30.858C263.158 30.858 264.334 30.102 264.334 28.758C264.334 27.078 262.78 26.406 258.538 24.978C253.918 23.382 249.718 22.122 249.718 17.796C249.718 13.428 254.254 11.118 260.344 11.118C266.518 11.118 270.802 13.512 271.936 17.796H264.838C264.502 15.57 263.116 14.058 260.47 14.058C258.538 14.058 257.572 14.898 257.572 15.99C257.572 17.796 259.966 18.678 264.25 19.98C268.828 21.408 272.188 22.962 272.188 26.868C272.188 31.53 267.526 33.798 261.226 33.798Z" fill="black"/>
<path d="M278.778 14.898C274.536 14.898 271.638 12.21 271.638 7.96799C271.638 3.76799 274.536 1.07999 278.778 1.07999C283.104 1.07999 285.96 3.76799 285.96 7.96799C285.96 12.21 283.104 14.898 278.778 14.898ZM273.234 7.96799C273.234 11.412 275.376 13.512 278.778 13.512C282.222 13.512 284.364 11.412 284.364 7.96799C284.364 4.56599 282.222 2.42399 278.778 2.42399C275.376 2.42399 273.234 4.56599 273.234 7.96799ZM275.376 11.328V11.244C275.88 11.076 276.006 10.74 276.006 9.94199V6.37199C276.006 5.19599 275.88 4.85999 275.376 4.43999V4.31399H278.736C280.71 4.31399 281.802 4.94399 281.802 6.37199C281.802 7.42199 281.172 7.96799 280.122 8.21999L282.642 11.202V11.328H280.08L278.316 8.38799H278.022V9.94199C278.022 10.782 278.148 11.076 278.778 11.244V11.328H275.376ZM277.854 7.63199H278.526C279.282 7.63199 279.744 7.25399 279.744 6.37199C279.744 5.61599 279.282 5.27999 278.526 5.27999H277.854V7.63199Z" fill="black"/>
</svg>
