<svg width="128" height="78" viewBox="0 0 128 78" fill="none" xmlns="http://www.w3.org/2000/svg">
<g clip-path="url(#clip0_79_100)">
<path d="M35.7043 0H0V77.4132H22.881V21.7872H33.1603C36.3651 21.7872 39.018 23.0044 39.018 26.5433C39.018 33.2885 25.6428 36.9381 25.6428 53.6387C25.6428 69.3419 38.5749 77.4151 52.2825 77.4151H62.3422V55.6279H54.8247C51.6198 55.6279 48.9669 54.4107 48.9669 50.8718C48.9669 44.1267 62.3422 40.477 62.3422 23.7764C62.3441 8.07323 49.41 0 35.7043 0Z" fill="#F70000"/>
<path d="M114.625 50.8718C114.625 44.1267 128 40.477 128 23.7764C128 8.07323 115.068 0 101.361 0H65.6562V77.4132H88.5373V21.7872H98.8165C102.021 21.7872 104.674 23.0044 104.674 26.5433C104.674 33.2885 91.299 36.9381 91.299 53.6387C91.299 69.3419 104.231 77.4151 117.939 77.4151H127.998V55.6279H120.481C117.276 55.6279 114.623 54.4107 114.623 50.8718H114.625Z" fill="#F70000"/>
</g>
<defs>
<clipPath id="clip0_79_100">
<rect width="128" height="77.4132" fill="white"/>
</clipPath>
</defs>
</svg>
